<svg width="35" height="35" viewBox="0 0 35 35" fill="none" xmlns="http://www.w3.org/2000/svg">
<path d="M17.5 32.0834C15.2951 32.0895 13.118 31.5907 11.1358 30.625C10.4104 30.2721 9.71529 29.8599 9.05769 29.3927L8.8579 29.2468C7.0493 27.9119 5.57063 26.1803 4.5354 24.185C3.4646 22.1198 2.90922 19.8262 2.91658 17.5C2.91658 9.44581 9.44583 2.91663 17.5 2.91663C25.5541 2.91663 32.0834 9.44581 32.0834 17.5C32.0907 19.8251 31.5358 22.1176 30.466 24.182C29.4322 26.1762 27.9556 27.9072 26.1494 29.2425C25.468 29.7412 24.7449 30.1803 23.9881 30.555L23.8714 30.6133C21.888 31.5841 19.7083 32.087 17.5 32.0834ZM17.5 24.7916C15.3146 24.7874 13.3112 26.0079 12.3127 27.9518C15.5814 29.5709 19.4186 29.5709 22.6873 27.9518V27.9445C21.6876 26.0027 19.684 24.7849 17.5 24.7916ZM17.5 21.875C20.6589 21.8791 23.5716 23.5814 25.1256 26.3316L25.1475 26.3127L25.1679 26.2952L25.1431 26.317L25.1285 26.3287C28.8166 23.1424 30.1354 17.9992 28.4355 13.4314C26.7356 8.86353 22.3753 5.83375 17.5014 5.83375C12.6276 5.83375 8.26726 8.86353 6.56737 13.4314C4.86748 17.9992 6.18624 23.1424 9.87436 26.3287C11.4293 23.5798 14.3418 21.8788 17.5 21.875ZM17.5 20.4166C14.2783 20.4166 11.6666 17.805 11.6666 14.5833C11.6666 11.3616 14.2783 8.74996 17.5 8.74996C20.7216 8.74996 23.3333 11.3616 23.3333 14.5833C23.3333 16.1304 22.7187 17.6141 21.6248 18.7081C20.5308 19.802 19.0471 20.4166 17.5 20.4166ZM17.5 11.6666C15.8892 11.6666 14.5833 12.9725 14.5833 14.5833C14.5833 16.1941 15.8892 17.5 17.5 17.5C19.1108 17.5 20.4167 16.1941 20.4167 14.5833C20.4167 12.9725 19.1108 11.6666 17.5 11.6666Z" fill="#8D8D8D"/>
</svg>
